<?xml version="1.0" encoding="UTF-8" standalone="no"?>
<!-- Created with Inkscape (http://www.inkscape.org/) -->

<svg
   width="280"
   height="280"
   viewBox="0 0 74.083333 74.083333"
   version="1.1"
   id="svg620"
   inkscape:version="1.2.2 (732a01da63, 2022-12-09)"
   sodipodi:docname="fenetre1_dessin.svg"
   inkscape:export-filename="fenetre1_dessin.png"
   inkscape:export-xdpi="96"
   inkscape:export-ydpi="96"
   xmlns:inkscape="http://www.inkscape.org/namespaces/inkscape"
   xmlns:sodipodi="http://sodipodi.sourceforge.net/DTD/sodipodi-0.dtd"
   xmlns:xlink="http://www.w3.org/1999/xlink"
   xmlns="http://www.w3.org/2000/svg"
   xmlns:svg="http://www.w3.org/2000/svg">
  <sodipodi:namedview
     id="namedview622"
     pagecolor="#ffffff"
     bordercolor="#666666"
     borderopacity="1.0"
     inkscape:showpageshadow="2"
     inkscape:pageopacity="0.0"
     inkscape:pagecheckerboard="0"
     inkscape:deskcolor="#d1d1d1"
     inkscape:document-units="mm"
     showgrid="false"
     inkscape:zoom="0.84096521"
     inkscape:cx="137.93674"
     inkscape:cy="389.43347"
     inkscape:window-width="1291"
     inkscape:window-height="991"
     inkscape:window-x="619"
     inkscape:window-y="0"
     inkscape:window-maximized="0"
     inkscape:current-layer="layer1" />
  <defs
     id="defs617">
    <linearGradient
       inkscape:collect="always"
       id="linearGradient900">
      <stop
         style="stop-color:#1a90dc;stop-opacity:1;"
         offset="0"
         id="stop896" />
      <stop
         style="stop-color:#51c5e3;stop-opacity:1;"
         offset="1"
         id="stop898" />
    </linearGradient>
    <linearGradient
       inkscape:collect="always"
       xlink:href="#linearGradient900"
       id="linearGradient902"
       x1="55.068359"
       y1="40.232422"
       x2="17.857422"
       y2="34.113281"
       gradientUnits="userSpaceOnUse" />
  </defs>
  <g
     inkscape:label="Calque 1"
     inkscape:groupmode="layer"
     id="layer1">
    <path
       style="font-variation-settings:normal;fill:url(#linearGradient902);fill-opacity:1;stroke:#000000;stroke-width:2.3;stroke-linecap:square;stroke-linejoin:miter;stroke-miterlimit:4;stroke-dasharray:none;stroke-dashoffset:0;stroke-opacity:1;stop-color:#000000"
       d="M 19.651127,57.740246 H 54.70125 c 0.617935,-23.88576 0.383196,-27.793235 0,-30.845231 C 54.318028,23.843023 50.131314,16.189572 37.652453,16.345427 25.173557,16.501283 19.718257,22.694025 19.16437,27.384346 c -0.553884,4.690325 0.486757,30.3559 0.486757,30.3559 z"
       id="path851" />
    <path
       id="path4646"
       style="color:#000000;fill:#a5e0f0;fill-opacity:0.702465;-inkscape-stroke:none"
       d="M 43.320353 16.88269 L 19.391064 50.546269 C 19.513166 54.202889 19.604984 56.551244 19.627743 57.120544 L 47.283936 18.213875 C 46.126652 17.667337 44.810967 17.208745 43.320353 16.88269 z " />
    <path
       id="path1094"
       style="color:#000000;fill:#a5e0f0;fill-opacity:0.702465;-inkscape-stroke:none"
       d="M 49.37218 19.397266 L 22.116479 57.740145 L 24.203174 57.740145 L 50.725586 20.428727 C 50.311947 20.073281 49.861615 19.727386 49.37218 19.397266 z " />
    <path
       id="path4644"
       style="color:#000000;fill:#a5e0f0;fill-opacity:0.702465;-inkscape-stroke:none"
       d="M 52.355977 22.089091 L 27.013338 57.740145 L 31.922083 57.740145 L 54.502616 25.973608 C 54.182064 24.872631 53.502904 23.476154 52.355977 22.089091 z " />
    <path
       style="color:#000000;fill:#ff6600;stroke-linecap:square;stroke:#000000;stroke-width:0.6;stroke-dasharray:none"
       d="m 36.501953,15.195313 v 1.15039 l -0.0098,41.349609 v 1.150391 h 2.300782 v -1.148437 l 0.0098,-41.351563 v -1.15039 z"
       id="path3394" />
    <path
       style="color:#000000;fill:#ff6600;stroke-linecap:square;stroke:#000000;stroke-width:0.6;stroke-dasharray:none"
       d="m 17.925781,37.931641 v 2.300781 h 1.150391 35.992187 1.150391 V 37.931641 H 55.068359 19.076172 Z"
       id="path3398" />
    <path
       style="color:#000000;fill:#ff6600;stroke-linecap:square;stroke:#000000;stroke-width:0.6;stroke-dasharray:none"
       d="M 37.638672,15.195313 C 24.783599,15.355867 18.664683,21.80339 18.021484,27.25 c -0.157714,1.335538 -0.18382,3.783869 -0.164062,6.863281 0.01976,3.079412 0.09777,6.732283 0.193359,10.238281 0.191179,7.011998 0.451172,13.435547 0.451172,13.435547 l 0.04492,1.103516 h 1.103516 36.171875 l 0.0293,-1.121094 c 0.618213,-23.896504 0.381313,-27.902801 -0.0098,-31.017578 -0.241304,-1.92175 -1.511911,-4.747774 -4.38086,-7.207031 -2.868948,-2.459257 -7.346187,-4.430493 -13.822265,-4.349609 z m 0.02734,2.300781 c 6.00277,-0.07497 9.858904,1.703423 12.298828,3.794922 2.439924,2.091498 3.453785,4.617808 3.595703,5.748046 0.366232,2.916887 0.570727,7.189999 0.0078,29.550782 H 20.763672 c -0.03722,-0.93235 -0.239089,-5.883155 -0.414063,-12.300782 -0.09534,-3.496678 -0.173777,-7.137421 -0.193359,-10.189453 -0.01958,-3.052031 0.03116,-5.570456 0.150391,-6.580078 0.464574,-3.934022 5.256681,-9.87228 17.359375,-10.023437 z"
       id="path3392" />
  </g>
</svg>
