<?xml version="1.0" encoding="UTF-8" standalone="no"?>
<!-- Created with Inkscape (http://www.inkscape.org/) -->

<svg
   width="280"
   height="280"
   viewBox="0 0 74.083333 74.083333"
   version="1.1"
   id="svg620"
   inkscape:version="1.2.2 (732a01da63, 2022-12-09)"
   sodipodi:docname="fenetre2_dessin.svg"
   inkscape:export-filename="fenetre2.png"
   inkscape:export-xdpi="96"
   inkscape:export-ydpi="96"
   xmlns:inkscape="http://www.inkscape.org/namespaces/inkscape"
   xmlns:sodipodi="http://sodipodi.sourceforge.net/DTD/sodipodi-0.dtd"
   xmlns:xlink="http://www.w3.org/1999/xlink"
   xmlns="http://www.w3.org/2000/svg"
   xmlns:svg="http://www.w3.org/2000/svg">
  <sodipodi:namedview
     id="namedview622"
     pagecolor="#ffffff"
     bordercolor="#666666"
     borderopacity="1.0"
     inkscape:showpageshadow="2"
     inkscape:pageopacity="0.0"
     inkscape:pagecheckerboard="0"
     inkscape:deskcolor="#d1d1d1"
     inkscape:document-units="mm"
     showgrid="false"
     inkscape:zoom="4.3892857"
     inkscape:cx="140"
     inkscape:cy="216.77787"
     inkscape:window-width="1920"
     inkscape:window-height="1001"
     inkscape:window-x="-9"
     inkscape:window-y="-9"
     inkscape:window-maximized="1"
     inkscape:current-layer="layer1" />
  <defs
     id="defs617">
    <linearGradient
       inkscape:collect="always"
       id="linearGradient8859">
      <stop
         style="stop-color:#36a2e6;stop-opacity:1;"
         offset="0"
         id="stop8855" />
      <stop
         style="stop-color:#64d0ec;stop-opacity:1;"
         offset="1"
         id="stop8857" />
    </linearGradient>
    <linearGradient
       inkscape:collect="always"
       xlink:href="#linearGradient8859"
       id="linearGradient8127"
       gradientUnits="userSpaceOnUse"
       gradientTransform="translate(-43.320353,-0.54600776)"
       x1="96.04744"
       y1="50.064255"
       x2="67.803139"
       y2="31.753641" />
  </defs>
  <g
     inkscape:label="Calque 1"
     inkscape:groupmode="layer"
     id="layer1">
    <path
       style="font-variation-settings:normal;fill:url(#linearGradient8127);fill-opacity:1;stroke:#000000;stroke-width:2.3;stroke-linecap:square;stroke-linejoin:miter;stroke-miterlimit:4;stroke-dasharray:none;stroke-dashoffset:0;stroke-opacity:1;stop-color:#000000;opacity:1;vector-effect:none;-inkscape-stroke:none;stop-opacity:1"
       d="m 19.550602,57.713244 h 35.006094 c 1.122945,-18.941113 0.430133,-28.820213 0,-30.806477 -0.430133,-1.986264 -2.769473,-10.599309 -17.027392,-10.536335 -14.25792,0.06297 -17.952297,7.828785 -18.464848,11.025052 -0.512524,3.196267 0.486146,30.31776 0.486146,30.31776 z"
       id="path6405" />
    <path
       id="path8861"
       style="color:#000000;fill:#a5e0f0;fill-opacity:0.702465;-inkscape-stroke:none"
       d="M 42.820903,16.622204 18.891614,50.285783 c 0.122102,3.65662 0.21392,6.004975 0.236679,6.574275 L 46.784486,17.953389 c -1.157284,-0.546538 -2.472969,-1.00513 -3.963583,-1.331185 z" />
    <path
       id="path8863"
       style="color:#000000;fill:#a5e0f0;fill-opacity:0.702465;-inkscape-stroke:none"
       d="M 48.87273,19.13678 21.617029,57.479659 h 2.086695 L 50.226136,20.168241 C 49.812497,19.812795 49.362165,19.4669 48.87273,19.13678 Z" />
    <path
       id="path8865"
       style="color:#000000;fill:#a5e0f0;fill-opacity:0.702465;-inkscape-stroke:none"
       d="M 51.856527,21.828605 26.513888,57.479659 h 4.908745 L 54.003166,25.713122 c -0.320552,-1.100977 -0.999712,-2.497454 -2.146639,-3.884517 z" />
    <path
       style="color:#000000;fill:#ff6600;stroke-linecap:square;fill-opacity:1;stroke:#000000;stroke-width:0.6;stroke-dasharray:none"
       d="m 35.347656,15.341797 v 1.050781 41.320313 1.050781 h 2.09961 V 57.712891 16.392578 15.341797 Z"
       id="path3777" />
    <path
       style="color:#000000;fill:#ff6600;stroke-linecap:square;fill-opacity:1;stroke:#000000;stroke-width:0.6;stroke-dasharray:none"
       d="m 17.974609,35.394531 v 2.09961 h 1.048828 36.123047 1.050782 v -2.09961 H 55.146484 19.023437 Z"
       id="path3775" />
    <path
       style="color:#000000;fill:#ff6600;stroke-linecap:square;fill-opacity:1;stroke:#000000;stroke-width:0.6;stroke-dasharray:none"
       d="m 37.525391,15.320313 c -14.63836,0.06465 -18.902701,8.195626 -19.498047,11.908203 -0.173326,1.080915 -0.17398,3.255908 -0.152344,6.259765 0.02164,3.003857 0.09851,6.697443 0.191406,10.291016 0.185789,7.187145 0.435547,13.972656 0.435547,13.972656 l 0.03711,1.011719 h 1.011719 35.996094 l 0.05859,-0.988281 c 0.562865,-9.494048 0.671125,-16.724431 0.583984,-21.841797 -0.08714,-5.117367 -0.340824,-8.018907 -0.607422,-9.25 -0.231957,-1.071131 -0.990075,-3.96485 -3.615234,-6.560547 -2.625159,-2.595697 -7.100776,-4.835156 -14.441406,-4.802734 z m 0.0078,2.099609 c 6.917274,-0.03055 10.740512,2.005622 12.957031,4.197265 2.21652,2.191644 2.842841,4.596588 3.041016,5.511719 0.163535,0.755169 0.472532,3.78778 0.558594,8.841797 0.08215,4.824077 -0.05895,11.872726 -0.554688,20.693359 H 20.568359 c -0.03199,-0.879104 -0.232306,-6.284133 -0.404297,-12.9375 -0.09271,-3.586326 -0.167986,-7.273539 -0.189453,-10.253906 -0.02147,-2.980367 0.04402,-5.392939 0.126953,-5.910156 0.429755,-2.679951 3.55419,-10.081288 17.431641,-10.142578 z"
       id="path3773" />
  </g>
</svg>
