<?xml version="1.0" encoding="UTF-8" standalone="no"?>
<!-- Created with Inkscape (http://www.inkscape.org/) -->

<svg
   width="280"
   height="280"
   viewBox="0 0 74.083333 74.083333"
   version="1.1"
   id="svg620"
   inkscape:version="1.2.2 (732a01da63, 2022-12-09)"
   sodipodi:docname="voile2_dessin.svg"
   inkscape:export-filename="voile2.png"
   inkscape:export-xdpi="96"
   inkscape:export-ydpi="96"
   xmlns:inkscape="http://www.inkscape.org/namespaces/inkscape"
   xmlns:sodipodi="http://sodipodi.sourceforge.net/DTD/sodipodi-0.dtd"
   xmlns:xlink="http://www.w3.org/1999/xlink"
   xmlns="http://www.w3.org/2000/svg"
   xmlns:svg="http://www.w3.org/2000/svg">
  <sodipodi:namedview
     id="namedview622"
     pagecolor="#ffffff"
     bordercolor="#666666"
     borderopacity="1.0"
     inkscape:showpageshadow="2"
     inkscape:pageopacity="0.0"
     inkscape:pagecheckerboard="0"
     inkscape:deskcolor="#d1d1d1"
     inkscape:document-units="mm"
     showgrid="false"
     inkscape:zoom="1.6819304"
     inkscape:cx="160.82711"
     inkscape:cy="216.71527"
     inkscape:window-width="1920"
     inkscape:window-height="1001"
     inkscape:window-x="-9"
     inkscape:window-y="-9"
     inkscape:window-maximized="1"
     inkscape:current-layer="layer1" />
  <defs
     id="defs617">
    <radialGradient
       inkscape:collect="always"
       xlink:href="#linearGradient10412"
       id="radialGradient10414"
       cx="21.570011"
       cy="17.879232"
       fx="21.570011"
       fy="17.879232"
       r="28.233324"
       gradientTransform="matrix(0.84956864,0.71368883,-0.63676498,0.68557692,17.817455,-0.68030859)"
       gradientUnits="userSpaceOnUse" />
    <linearGradient
       inkscape:collect="always"
       id="linearGradient10412">
      <stop
         style="stop-color:#ffffff;stop-opacity:0.25414366;"
         offset="0"
         id="stop10408" />
      <stop
         style="stop-color:#a6a6a6;stop-opacity:0.24033147;"
         offset="1"
         id="stop10410" />
    </linearGradient>
  </defs>
  <g
     inkscape:label="Calque 1"
     inkscape:groupmode="layer"
     id="layer1">
    <path
       style="font-variation-settings:normal;vector-effect:none;fill:#ffffff;fill-opacity:1;stroke:#000000;stroke-width:0.4;stroke-linecap:square;stroke-linejoin:miter;stroke-miterlimit:4;stroke-dasharray:none;stroke-dashoffset:0;stroke-opacity:1;-inkscape-stroke:none;stop-color:#000000"
       d="m 22.470761,21.032408 35.575896,-0.131895 c -8.078338,9.287248 -9.194986,23.274882 0.172984,32.09122 L 22.998374,53.184032 C 11.976751,43.166248 14.401604,28.631098 22.470761,21.032408 Z"
       id="path10856" />
    <path
       style="font-variation-settings:normal;vector-effect:none;fill:#d0d0d0;fill-opacity:1;stroke:none;stroke-width:0.297068;stroke-linecap:square;stroke-linejoin:miter;stroke-miterlimit:4;stroke-dasharray:none;stroke-dashoffset:0;stroke-opacity:1;-inkscape-stroke:none;stop-color:#000000"
       d="m 40.513565,46.306132 c 6.946292,-2.497436 5.548561,-7.008936 7.539266,-13.292809 1.0211,-3.223208 3.472594,-7.868754 -1.186254,-12.071186 l 11.249364,-0.04162 c -7.762778,9.550852 -9.667904,22.091657 0.173345,32.091223 v 0 l -35.290912,0.192294 c -2.472817,-2.278479 -4.184928,-4.681097 -5.350019,-7.031912 6.040393,1.37115 17.290918,2.158168 22.86521,0.154012 z"
       id="path10220"
       sodipodi:nodetypes="ssccccccss" />
    <path
       style="font-variation-settings:normal;vector-effect:none;fill:url(#radialGradient10414);fill-opacity:1;stroke:none;stroke-width:0.297068;stroke-linecap:square;stroke-linejoin:miter;stroke-miterlimit:4;stroke-dasharray:none;stroke-dashoffset:0;stroke-opacity:1;-inkscape-stroke:none;stop-color:#000000"
       d="m 22.469719,21.032405 c -8.422244,9.711567 -10.388749,20.748041 0.528655,32.151627 l 35.290912,-0.192296 v 0 C 48.664327,42.874177 50.436581,29.978628 58.115941,20.900513 Z"
       id="path10383"
       sodipodi:nodetypes="cccccc" />
    <path
       style="font-variation-settings:normal;vector-effect:none;fill:none;fill-opacity:1;stroke:#000000;stroke-width:0.4;stroke-linecap:square;stroke-linejoin:miter;stroke-miterlimit:4;stroke-dasharray:none;stroke-dashoffset:0;stroke-opacity:1;-inkscape-stroke:none;stop-color:#000000"
       d="m 22.470761,21.032408 35.575896,-0.131895 c -8.078338,9.287248 -9.194986,23.274882 0.172984,32.09122 L 22.998374,53.184032 C 11.976751,43.166248 14.401604,28.631098 22.470761,21.032408 Z"
       id="path10875" />
    <path
       style="color:#000000;fill:#8d471a;stroke-linecap:round;stroke:#000000;stroke-width:0.4;stroke-dasharray:none"
       d="M 58.113281,20.201172 22.46875,20.332031 a 0.69999999,0.69999999 0 0 0 -0.697266,0.703125 0.69999999,0.69999999 0 0 0 0.701172,0.697266 l 35.646485,-0.132813 a 0.69999999,0.69999999 0 0 0 0.697265,-0.701172 0.69999999,0.69999999 0 0 0 -0.703125,-0.697265 z"
       id="path10904" />
    <path
       style="color:#000000;fill:#6d3714;stroke-linecap:round;stroke:#000000;stroke-width:0.4;stroke-dasharray:none"
       d="m 58.214844,52.291016 -35.220703,0.193359 a 0.69999999,0.69999999 0 0 0 -0.695313,0.703125 0.69999999,0.69999999 0 0 0 0.703125,0.697266 l 35.220703,-0.19336 a 0.69999999,0.69999999 0 0 0 0.697266,-0.703125 0.69999999,0.69999999 0 0 0 -0.705078,-0.697265 z"
       id="path12306" />
  </g>
</svg>
