<?xml version="1.0" encoding="UTF-8" standalone="no"?>
<!-- Created with Inkscape (http://www.inkscape.org/) -->

<svg
   width="2048"
   height="2048"
   viewBox="0 0 541.86665 541.86666"
   version="1.1"
   id="svg1"
   xml:space="preserve"
   inkscape:version="1.3.2 (091e20e, 2023-11-25)"
   sodipodi:docname="Cabine du haut niveau 3.svg"
   xmlns:inkscape="http://www.inkscape.org/namespaces/inkscape"
   xmlns:sodipodi="http://sodipodi.sourceforge.net/DTD/sodipodi-0.dtd"
   xmlns="http://www.w3.org/2000/svg"
   xmlns:svg="http://www.w3.org/2000/svg"><sodipodi:namedview
     id="namedview1"
     pagecolor="#505050"
     bordercolor="#eeeeee"
     borderopacity="1"
     inkscape:showpageshadow="0"
     inkscape:pageopacity="0"
     inkscape:pagecheckerboard="0"
     inkscape:deskcolor="#505050"
     inkscape:document-units="mm"
     inkscape:zoom="1.339386"
     inkscape:cx="848.52314"
     inkscape:cy="883.24054"
     inkscape:window-width="1312"
     inkscape:window-height="781"
     inkscape:window-x="46"
     inkscape:window-y="25"
     inkscape:window-maximized="0"
     inkscape:current-layer="layer1" /><defs
     id="defs1" /><g
     inkscape:label="Layer 1"
     inkscape:groupmode="layer"
     id="layer1"><path
       style="fill:none;stroke:#000000;stroke-width:3"
       d="m 391.06059,157.81515 -186.16838,4.27973 2.67484,222.01114 116.62272,-1.06992 -1.06994,-115.5528 c 0,0 -9.09442,-60.45122 67.94076,-109.66815 z"
       id="path13" /><path
       style="fill:none;stroke:#000000;stroke-width:3"
       d="m 205.97805,267.12777 116.7404,0.58518"
       id="path14" /><path
       style="fill:none;stroke:#000000;stroke-width:3.37579"
       id="path15"
       sodipodi:type="arc"
       sodipodi:cx="232.33617"
       sodipodi:cy="207.81625"
       sodipodi:rx="18.27162"
       sodipodi:ry="18.271673"
       sodipodi:start="0.55369904"
       sodipodi:end="0.55368825"
       sodipodi:open="true"
       sodipodi:arc-type="chord"
       d="m 247.87774,217.42418 a 18.27162,18.271673 0 0 1 -25.14943,5.93372 18.27162,18.271673 0 0 1 -5.93377,-25.14949 18.27162,18.271673 0 0 1 25.1494,-5.93385 18.27162,18.271673 0 0 1 5.9339,25.14945 z" /><path
       style="fill:none;stroke:#000000;stroke-width:3.37579"
       id="path16"
       sodipodi:type="arc"
       sodipodi:cx="289.22791"
       sodipodi:cy="207.22363"
       sodipodi:rx="18.27162"
       sodipodi:ry="18.271673"
       sodipodi:start="0.55369904"
       sodipodi:end="0.55368825"
       sodipodi:open="true"
       sodipodi:arc-type="chord"
       d="m 304.76948,216.83156 a 18.27162,18.271673 0 0 1 -25.14943,5.93371 18.27162,18.271673 0 0 1 -5.93377,-25.14948 18.27162,18.271673 0 0 1 25.1494,-5.93385 18.27162,18.271673 0 0 1 5.9339,25.14945 z" /></g></svg>
