<?xml version="1.0" encoding="UTF-8" standalone="no"?>
<!-- Created with Inkscape (http://www.inkscape.org/) -->

<svg
   width="2048"
   height="2048"
   viewBox="0 0 541.86665 541.86666"
   version="1.1"
   id="svg1"
   xml:space="preserve"
   inkscape:version="1.3.2 (091e20e, 2023-11-25)"
   sodipodi:docname="Cheminée Niveau 3.svg"
   xmlns:inkscape="http://www.inkscape.org/namespaces/inkscape"
   xmlns:sodipodi="http://sodipodi.sourceforge.net/DTD/sodipodi-0.dtd"
   xmlns="http://www.w3.org/2000/svg"
   xmlns:svg="http://www.w3.org/2000/svg"><sodipodi:namedview
     id="namedview1"
     pagecolor="#505050"
     bordercolor="#eeeeee"
     borderopacity="1"
     inkscape:showpageshadow="0"
     inkscape:pageopacity="0"
     inkscape:pagecheckerboard="0"
     inkscape:deskcolor="#505050"
     inkscape:document-units="mm"
     inkscape:zoom="0.3566554"
     inkscape:cx="876.19591"
     inkscape:cy="1141.1576"
     inkscape:window-width="1312"
     inkscape:window-height="781"
     inkscape:window-x="46"
     inkscape:window-y="25"
     inkscape:window-maximized="0"
     inkscape:current-layer="layer1" /><defs
     id="defs1" /><g
     inkscape:label="Layer 1"
     inkscape:groupmode="layer"
     id="layer1"><path
       style="fill:none;stroke:#000000;stroke-width:3"
       d="m 228.6479,415.42292 1.10192,-187.87694 -15.42685,-14.32493 c 0,0 -11.57013,-12.67205 7.16247,-12.12109 18.7326,0.55096 99.72354,0.55096 99.72354,0.55096 0,0 11.01918,1.10192 6.61151,8.81534 -4.40767,7.71342 -18.7326,18.18164 -18.7326,18.18164 l 0.55096,189.52984 c 0,0 -36.91424,41.87285 -80.99095,-2.75482 z"
       id="path4" /><path
       style="fill:none;stroke:#000000;stroke-width:4.07515"
       id="path5"
       sodipodi:type="arc"
       sodipodi:cx="307.47757"
       sodipodi:cy="-212.4671"
       sodipodi:rx="56.017643"
       sodipodi:ry="23.026623"
       sodipodi:start="1.0529802"
       sodipodi:end="5.7973071"
       sodipodi:arc-type="arc"
       d="m 335.20539,-192.45922 a 56.017643,23.026623 0 0 1 -62.43779,-1.93434 56.017643,23.026623 0 0 1 -19.07078,-24.51562 56.017643,23.026623 0 0 1 48.12346,-16.46682 56.017643,23.026623 0 0 1 55.19174,12.15581"
       transform="matrix(0.39619171,0.91816781,-0.8342793,0.55134204,0,0)"
       sodipodi:open="true" /></g></svg>
