<?xml version="1.0" encoding="UTF-8" standalone="no"?>
<!-- Created with Inkscape (http://www.inkscape.org/) -->

<svg
   width="2048"
   height="2048"
   viewBox="0 0 541.86665 541.86666"
   version="1.1"
   id="svg1"
   xml:space="preserve"
   inkscape:version="1.3.2 (091e20e, 2023-11-25)"
   sodipodi:docname="Hublot niveau 3.svg"
   xmlns:inkscape="http://www.inkscape.org/namespaces/inkscape"
   xmlns:sodipodi="http://sodipodi.sourceforge.net/DTD/sodipodi-0.dtd"
   xmlns="http://www.w3.org/2000/svg"
   xmlns:svg="http://www.w3.org/2000/svg"><sodipodi:namedview
     id="namedview1"
     pagecolor="#505050"
     bordercolor="#eeeeee"
     borderopacity="1"
     inkscape:showpageshadow="0"
     inkscape:pageopacity="0"
     inkscape:pagecheckerboard="0"
     inkscape:deskcolor="#505050"
     inkscape:document-units="mm"
     inkscape:zoom="0.16449041"
     inkscape:cx="832.87533"
     inkscape:cy="772.08151"
     inkscape:window-width="1312"
     inkscape:window-height="781"
     inkscape:window-x="46"
     inkscape:window-y="25"
     inkscape:window-maximized="0"
     inkscape:current-layer="layer1" /><defs
     id="defs1"><inkscape:path-effect
       effect="fillet_chamfer"
       id="path-effect20"
       is_visible="true"
       lpeversion="1"
       nodesatellites_param="F,0,0,1,0,0,0,1 @ F,0,0,1,0,4.6572214,0,1 @ F,0,0,1,0,4.3782729,0,1 @ F,0,0,1,0,0,0,1"
       radius="0"
       unit="px"
       method="auto"
       mode="F"
       chamfer_steps="1"
       flexible="false"
       use_knot_distance="true"
       apply_no_radius="true"
       apply_with_radius="true"
       only_selected="false"
       hide_knots="false" /><inkscape:path-effect
       effect="fillet_chamfer"
       id="path-effect18"
       is_visible="true"
       lpeversion="1"
       nodesatellites_param="F,0,0,1,0,0,0,1 @ F,0,0,1,0,4.6572214,0,1 @ F,0,0,1,0,4.3782729,0,1 @ F,0,0,1,0,0,0,1"
       radius="0"
       unit="px"
       method="auto"
       mode="F"
       chamfer_steps="1"
       flexible="false"
       use_knot_distance="true"
       apply_no_radius="true"
       apply_with_radius="true"
       only_selected="false"
       hide_knots="false" /><inkscape:path-effect
       effect="fillet_chamfer"
       id="path-effect17"
       is_visible="true"
       lpeversion="1"
       nodesatellites_param="F,0,0,1,0,0,0,1 @ F,0,0,1,0,6.7359881,0,1 @ F,0,0,1,0,0,0,1 @ F,0,0,1,0,0,0,1"
       radius="0"
       unit="px"
       method="auto"
       mode="F"
       chamfer_steps="1"
       flexible="false"
       use_knot_distance="true"
       apply_no_radius="true"
       apply_with_radius="true"
       only_selected="false"
       hide_knots="false" /></defs><g
     inkscape:label="Layer 1"
     inkscape:groupmode="layer"
     id="layer1"
     transform="matrix(2.1607325,0,0,2.1607325,-321.2745,-319.71212)"><path
       style="fill:none;stroke:#000000;stroke-width:3.04338"
       id="path23"
       sodipodi:type="arc"
       sodipodi:cx="271.93646"
       sodipodi:cy="270.59036"
       sodipodi:rx="85.083893"
       sodipodi:ry="85.085106"
       sodipodi:start="0.55369904"
       sodipodi:end="0.55368825"
       sodipodi:open="true"
       sodipodi:arc-type="chord"
       d="m 344.30757,315.33127 a 85.083893,85.085106 0 0 1 -117.11119,27.63135 85.083893,85.085106 0 0 1 -27.63126,-117.11278 85.083893,85.085106 0 0 1 117.11103,-27.63198 85.083893,85.085106 0 0 1 27.6319,117.11263 z" /><path
       style="fill:none;stroke:#000000;stroke-width:2.30165"
       id="path24"
       sodipodi:type="arc"
       sodipodi:cx="271.93646"
       sodipodi:cy="271.04041"
       sodipodi:rx="64.347473"
       sodipodi:ry="64.348389"
       sodipodi:start="0.55369904"
       sodipodi:end="0.55368825"
       sodipodi:open="true"
       sodipodi:arc-type="chord"
       d="m 326.66947,304.87718 a 64.347473,64.348389 0 0 1 -88.56915,20.89711 64.347473,64.348389 0 0 1 -20.89705,-88.57036 64.347473,64.348389 0 0 1 88.56904,-20.89759 64.347473,64.348389 0 0 1 20.89753,88.57025 z" /><path
       style="fill:none;stroke:#000000;stroke-width:2.30165"
       id="path25"
       sodipodi:type="arc"
       sodipodi:cx="271.93646"
       sodipodi:cy="271.04041"
       sodipodi:rx="64.347473"
       sodipodi:ry="64.348389"
       sodipodi:start="0.55369904"
       sodipodi:end="0.55368825"
       sodipodi:open="true"
       sodipodi:arc-type="chord"
       d="m 326.66947,304.87718 a 64.347473,64.348389 0 0 1 -88.56915,20.89711 64.347473,64.348389 0 0 1 -20.89705,-88.57036 64.347473,64.348389 0 0 1 88.56904,-20.89759 64.347473,64.348389 0 0 1 20.89753,88.57025 z" /><path
       style="fill:none;stroke:#000000;stroke-width:3"
       id="path26"
       sodipodi:type="arc"
       sodipodi:cx="273.79117"
       sodipodi:cy="197.10257"
       sodipodi:rx="4.60776"
       sodipodi:ry="4.672204"
       sodipodi:start="0.55369904"
       sodipodi:end="0.55368825"
       sodipodi:open="true"
       sodipodi:arc-type="chord"
       d="m 277.71046,199.55939 a 4.60776,4.672204 0 0 1 -6.34221,1.51729 4.60776,4.672204 0 0 1 -1.49639,-6.43091 4.60776,4.672204 0 0 1 6.34221,-1.51733 4.60776,4.672204 0 0 1 1.49642,6.43091 z" /><path
       style="fill:none;stroke:#000000;stroke-width:3"
       id="path27"
       sodipodi:type="arc"
       sodipodi:cx="219.16039"
       sodipodi:cy="218.31216"
       sodipodi:rx="4.60776"
       sodipodi:ry="4.672204"
       sodipodi:start="0.55369904"
       sodipodi:end="0.55368825"
       sodipodi:open="true"
       sodipodi:arc-type="chord"
       d="m 223.07968,220.76898 a 4.60776,4.672204 0 0 1 -6.34222,1.5173 4.60776,4.672204 0 0 1 -1.49638,-6.43091 4.60776,4.672204 0 0 1 6.3422,-1.51733 4.60776,4.672204 0 0 1 1.49642,6.4309 z" /><path
       style="fill:none;stroke:#000000;stroke-width:3"
       id="path28"
       sodipodi:type="arc"
       sodipodi:cx="196.98671"
       sodipodi:cy="272.30023"
       sodipodi:rx="4.60776"
       sodipodi:ry="4.672204"
       sodipodi:start="0.55369904"
       sodipodi:end="0.55368825"
       sodipodi:open="true"
       sodipodi:arc-type="chord"
       d="m 200.906,274.75705 a 4.60776,4.672204 0 0 1 -6.34221,1.5173 4.60776,4.672204 0 0 1 -1.49639,-6.43092 4.60776,4.672204 0 0 1 6.34221,-1.51733 4.60776,4.672204 0 0 1 1.49642,6.43091 z" /><path
       style="fill:none;stroke:#000000;stroke-width:3"
       id="path29"
       sodipodi:type="arc"
       sodipodi:cx="219.48174"
       sodipodi:cy="323.71744"
       sodipodi:rx="4.60776"
       sodipodi:ry="4.672204"
       sodipodi:start="0.55369904"
       sodipodi:end="0.55368825"
       sodipodi:open="true"
       sodipodi:arc-type="chord"
       d="m 223.40103,326.17426 a 4.60776,4.672204 0 0 1 -6.34222,1.51729 4.60776,4.672204 0 0 1 -1.49638,-6.43091 4.60776,4.672204 0 0 1 6.3422,-1.51733 4.60776,4.672204 0 0 1 1.49642,6.4309 z" /><path
       style="fill:none;stroke:#000000;stroke-width:3"
       id="path30"
       sodipodi:type="arc"
       sodipodi:cx="272.50574"
       sodipodi:cy="345.24841"
       sodipodi:rx="4.60776"
       sodipodi:ry="4.672204"
       sodipodi:start="0.55369904"
       sodipodi:end="0.55368825"
       sodipodi:open="true"
       sodipodi:arc-type="chord"
       d="m 276.42503,347.70523 a 4.60776,4.672204 0 0 1 -6.34221,1.5173 4.60776,4.672204 0 0 1 -1.49639,-6.43091 4.60776,4.672204 0 0 1 6.34221,-1.51733 4.60776,4.672204 0 0 1 1.49642,6.4309 z" /><path
       style="fill:none;stroke:#000000;stroke-width:3"
       id="path31"
       sodipodi:type="arc"
       sodipodi:cx="324.24429"
       sodipodi:cy="323.71744"
       sodipodi:rx="4.60776"
       sodipodi:ry="4.672204"
       sodipodi:start="0.55369904"
       sodipodi:end="0.55368825"
       sodipodi:open="true"
       sodipodi:arc-type="chord"
       d="m 328.16359,326.17426 a 4.60776,4.672204 0 0 1 -6.34222,1.51729 4.60776,4.672204 0 0 1 -1.49638,-6.43091 4.60776,4.672204 0 0 1 6.3422,-1.51733 4.60776,4.672204 0 0 1 1.49642,6.4309 z" /><path
       style="fill:none;stroke:#000000;stroke-width:3"
       id="path32"
       sodipodi:type="arc"
       sodipodi:cx="345.45392"
       sodipodi:cy="271.33618"
       sodipodi:rx="4.60776"
       sodipodi:ry="4.672204"
       sodipodi:start="0.55369904"
       sodipodi:end="0.55368825"
       sodipodi:open="true"
       sodipodi:arc-type="chord"
       d="m 349.37321,273.793 a 4.60776,4.672204 0 0 1 -6.34221,1.5173 4.60776,4.672204 0 0 1 -1.49639,-6.43092 4.60776,4.672204 0 0 1 6.34221,-1.51733 4.60776,4.672204 0 0 1 1.49642,6.43091 z" /><path
       style="fill:none;stroke:#000000;stroke-width:3"
       id="path33"
       sodipodi:type="arc"
       sodipodi:cx="325.8511"
       sodipodi:cy="219.91896"
       sodipodi:rx="4.60776"
       sodipodi:ry="4.672204"
       sodipodi:start="0.55369904"
       sodipodi:end="0.55368825"
       sodipodi:open="true"
       sodipodi:arc-type="chord"
       d="m 329.7704,222.37578 a 4.60776,4.672204 0 0 1 -6.34222,1.5173 4.60776,4.672204 0 0 1 -1.49638,-6.43092 4.60776,4.672204 0 0 1 6.3422,-1.51733 4.60776,4.672204 0 0 1 1.49642,6.43091 z" /></g></svg>
