<?xml version="1.0" encoding="UTF-8" standalone="no"?>
<!-- Created with Inkscape (http://www.inkscape.org/) -->

<svg
   width="2048"
   height="2048"
   viewBox="0 0 541.86665 541.86666"
   version="1.1"
   id="svg1"
   xml:space="preserve"
   inkscape:version="1.3.2 (091e20e, 2023-11-25)"
   sodipodi:docname="Hublot niveau 2.svg"
   xmlns:inkscape="http://www.inkscape.org/namespaces/inkscape"
   xmlns:sodipodi="http://sodipodi.sourceforge.net/DTD/sodipodi-0.dtd"
   xmlns="http://www.w3.org/2000/svg"
   xmlns:svg="http://www.w3.org/2000/svg"><sodipodi:namedview
     id="namedview1"
     pagecolor="#505050"
     bordercolor="#eeeeee"
     borderopacity="1"
     inkscape:showpageshadow="0"
     inkscape:pageopacity="0"
     inkscape:pagecheckerboard="0"
     inkscape:deskcolor="#505050"
     inkscape:document-units="mm"
     inkscape:zoom="0.66716029"
     inkscape:cx="959.28971"
     inkscape:cy="954.79304"
     inkscape:window-width="1312"
     inkscape:window-height="781"
     inkscape:window-x="0"
     inkscape:window-y="25"
     inkscape:window-maximized="0"
     inkscape:current-layer="layer1" /><defs
     id="defs1" /><g
     inkscape:label="Layer 1"
     inkscape:groupmode="layer"
     id="layer1"><path
       style="fill:none;stroke:#000000;stroke-width:2.07706"
       id="path6"
       sodipodi:type="arc"
       sodipodi:cx="269.87357"
       sodipodi:cy="272.45145"
       sodipodi:rx="64.112785"
       sodipodi:ry="64.112968"
       sodipodi:start="0"
       sodipodi:end="6.2830277"
       sodipodi:open="true"
       sodipodi:arc-type="arc"
       d="m 333.98635,272.45145 a 64.112785,64.112968 0 0 1 -64.11026,64.11296 64.112785,64.112968 0 0 1 -64.11531,-64.10791 64.112785,64.112968 0 0 1 64.10521,-64.11802 64.112785,64.112968 0 0 1 64.12036,64.10286" /><path
       style="fill:none;stroke:#000000;stroke-width:2.71554"
       id="path7"
       sodipodi:type="arc"
       sodipodi:cx="270.07187"
       sodipodi:cy="271.8566"
       sodipodi:rx="83.820877"
       sodipodi:ry="83.821106"
       sodipodi:start="0"
       sodipodi:end="6.2830277"
       sodipodi:open="true"
       sodipodi:arc-type="arc"
       d="m 353.89275,271.8566 a 83.820877,83.821106 0 0 1 -83.81758,83.8211 83.820877,83.821106 0 0 1 -83.82418,-83.8145 83.820877,83.821106 0 0 1 83.81097,-83.82771 83.820877,83.821106 0 0 1 83.83078,83.8079" /></g></svg>
