<?xml version="1.0" encoding="UTF-8" standalone="no"?>
<!-- Created with Inkscape (http://www.inkscape.org/) -->

<svg
   width="280"
   height="280"
   viewBox="0 0 74.083333 74.083333"
   version="1.1"
   id="svg620"
   inkscape:version="1.2.2 (732a01da63, 2022-12-09)"
   sodipodi:docname="hublot_image.svg"
   inkscape:export-filename="hublot_image.png"
   inkscape:export-xdpi="96"
   inkscape:export-ydpi="96"
   xmlns:inkscape="http://www.inkscape.org/namespaces/inkscape"
   xmlns:sodipodi="http://sodipodi.sourceforge.net/DTD/sodipodi-0.dtd"
   xmlns:xlink="http://www.w3.org/1999/xlink"
   xmlns="http://www.w3.org/2000/svg"
   xmlns:svg="http://www.w3.org/2000/svg">
  <sodipodi:namedview
     id="namedview622"
     pagecolor="#ffffff"
     bordercolor="#666666"
     borderopacity="1.0"
     inkscape:showpageshadow="2"
     inkscape:pageopacity="0.0"
     inkscape:pagecheckerboard="0"
     inkscape:deskcolor="#d1d1d1"
     inkscape:document-units="mm"
     showgrid="false"
     inkscape:zoom="1.375"
     inkscape:cx="61.454545"
     inkscape:cy="268"
     inkscape:window-width="1206"
     inkscape:window-height="1001"
     inkscape:window-x="696"
     inkscape:window-y="0"
     inkscape:window-maximized="0"
     inkscape:current-layer="layer1" />
  <defs
     id="defs617">
    <linearGradient
       inkscape:collect="always"
       id="linearGradient8068">
      <stop
         style="stop-color:#545d6b;stop-opacity:1;"
         offset="0"
         id="stop8064" />
      <stop
         style="stop-color:#ebebeb;stop-opacity:0.99186999;"
         offset="0.49446452"
         id="stop8072" />
      <stop
         style="stop-color:#676a74;stop-opacity:1;"
         offset="1"
         id="stop8066" />
    </linearGradient>
    <linearGradient
       inkscape:collect="always"
       xlink:href="#linearGradient8068"
       id="linearGradient8070"
       x1="24.317945"
       y1="50.056423"
       x2="49.988506"
       y2="25.362371"
       gradientUnits="userSpaceOnUse" />
  </defs>
  <g
     inkscape:label="Calque 1"
     inkscape:groupmode="layer"
     id="layer1">
    <path
       id="path847"
       style="fill:#303030;fill-rule:evenodd;stroke:#4d4d4d;stroke-width:4.81;stroke-linejoin:round;paint-order:stroke markers fill;stop-color:#000000;stroke-dasharray:none;fill-opacity:1"
       d="M 54.813319,37.041668 A 17.771646,17.771646 0 0 1 37.041653,54.813312 17.771646,17.771646 0 0 1 19.270014,37.041668 17.771646,17.771646 0 0 1 37.041653,19.270021 17.771646,17.771646 0 0 1 54.813319,37.041668 Z" />
    <path
       style="color:#000000;fill:url(#linearGradient8070);fill-rule:evenodd;stroke-linejoin:round;paint-order:stroke markers fill;fill-opacity:1;stroke:#000000;stroke-width:1.3;stroke-dasharray:none"
       d="m 37.041016,16.865234 c -11.114754,5e-6 -20.175782,9.061028 -20.175782,20.175782 2e-6,11.114752 9.061029,20.17773 20.175782,20.177734 11.114764,1.3e-5 20.177733,-9.06297 20.177734,-20.177734 10e-7,-11.114766 -9.062969,-20.175794 -20.177734,-20.175782 z m 0,4.810547 c 8.515249,-9e-6 15.367188,6.849985 15.367187,15.365235 -10e-7,8.515248 -6.851939,15.367197 -15.367187,15.367187 -8.515239,-3e-6 -15.365234,-6.851948 -15.365235,-15.367187 0,-8.51524 6.849995,-15.365231 15.365235,-15.365235 z"
       id="path4491" />
  </g>
</svg>
