<?xml version="1.0" encoding="UTF-8" standalone="no"?>
<!-- Created with Inkscape (http://www.inkscape.org/) -->

<svg
   width="2048"
   height="2048"
   viewBox="0 0 541.86665 541.86666"
   version="1.1"
   id="svg1"
   xml:space="preserve"
   inkscape:version="1.3.2 (091e20e, 2023-11-25)"
   sodipodi:docname="Turbine niveau 2.svg"
   xmlns:inkscape="http://www.inkscape.org/namespaces/inkscape"
   xmlns:sodipodi="http://sodipodi.sourceforge.net/DTD/sodipodi-0.dtd"
   xmlns="http://www.w3.org/2000/svg"
   xmlns:svg="http://www.w3.org/2000/svg"><sodipodi:namedview
     id="namedview1"
     pagecolor="#505050"
     bordercolor="#eeeeee"
     borderopacity="1"
     inkscape:showpageshadow="0"
     inkscape:pageopacity="0"
     inkscape:pagecheckerboard="0"
     inkscape:deskcolor="#505050"
     inkscape:document-units="mm"
     inkscape:zoom="0.88384875"
     inkscape:cx="985.46273"
     inkscape:cy="1096.3414"
     inkscape:window-width="1312"
     inkscape:window-height="781"
     inkscape:window-x="0"
     inkscape:window-y="25"
     inkscape:window-maximized="0"
     inkscape:current-layer="layer1" /><defs
     id="defs1" /><g
     inkscape:label="Layer 1"
     inkscape:groupmode="layer"
     id="layer1"><path
       style="fill:none;stroke:#000000;stroke-width:3"
       d="M 216.85379,270.90825 H 317.96744"
       id="path8" /><path
       style="fill:none;stroke:#000000;stroke-width:2.85301"
       id="path9"
       sodipodi:type="arc"
       sodipodi:cx="231.88788"
       sodipodi:cy="-299.4108"
       sodipodi:rx="46.984142"
       sodipodi:ry="28.148809"
       sodipodi:start="0.55369904"
       sodipodi:end="5.70807"
       sodipodi:arc-type="arc"
       d="m 271.8519,-284.60911 a 46.984142,28.148809 0 0 1 -52.56387,12.31606 46.984142,28.148809 0 0 1 -34.3816,-26.81633 46.984142,28.148809 0 0 1 33.41519,-27.25129 46.984142,28.148809 0 0 1 52.99204,11.63885"
       transform="rotate(90)"
       sodipodi:open="true" /><path
       style="fill:none;stroke:#000000;stroke-width:2.85301"
       id="path10"
       sodipodi:type="arc"
       sodipodi:cx="-310.4017"
       sodipodi:cy="-299.17975"
       sodipodi:rx="46.984142"
       sodipodi:ry="28.148809"
       sodipodi:start="0.55369904"
       sodipodi:end="5.70807"
       sodipodi:arc-type="arc"
       d="m -270.43768,-284.37806 a 46.984142,28.148809 0 0 1 -52.56387,12.31606 46.984142,28.148809 0 0 1 -34.3816,-26.81633 46.984142,28.148809 0 0 1 33.41519,-27.25129 46.984142,28.148809 0 0 1 52.99204,11.63885"
       transform="matrix(0,-1,-1,0,0,0)"
       sodipodi:open="true" /></g></svg>
