<?xml version="1.0" encoding="UTF-8" standalone="no"?>
<!-- Created with Inkscape (http://www.inkscape.org/) -->

<svg
   width="2048"
   height="2048"
   viewBox="0 0 541.86665 541.86666"
   version="1.1"
   id="svg1"
   xml:space="preserve"
   inkscape:version="1.3.2 (091e20e, 2023-11-25)"
   sodipodi:docname="Turbine niveau 3.svg"
   xmlns:inkscape="http://www.inkscape.org/namespaces/inkscape"
   xmlns:sodipodi="http://sodipodi.sourceforge.net/DTD/sodipodi-0.dtd"
   xmlns="http://www.w3.org/2000/svg"
   xmlns:svg="http://www.w3.org/2000/svg"><sodipodi:namedview
     id="namedview1"
     pagecolor="#505050"
     bordercolor="#eeeeee"
     borderopacity="1"
     inkscape:showpageshadow="0"
     inkscape:pageopacity="0"
     inkscape:pagecheckerboard="0"
     inkscape:deskcolor="#505050"
     inkscape:document-units="mm"
     inkscape:zoom="0.63518722"
     inkscape:cx="903.67058"
     inkscape:cy="843.8457"
     inkscape:window-width="1312"
     inkscape:window-height="781"
     inkscape:window-x="149"
     inkscape:window-y="25"
     inkscape:window-maximized="0"
     inkscape:current-layer="layer1" /><defs
     id="defs1"><inkscape:path-effect
       effect="fillet_chamfer"
       id="path-effect20"
       is_visible="true"
       lpeversion="1"
       nodesatellites_param="F,0,0,1,0,0,0,1 @ F,0,0,1,0,4.6572214,0,1 @ F,0,0,1,0,4.3782729,0,1 @ F,0,0,1,0,0,0,1"
       radius="0"
       unit="px"
       method="auto"
       mode="F"
       chamfer_steps="1"
       flexible="false"
       use_knot_distance="true"
       apply_no_radius="true"
       apply_with_radius="true"
       only_selected="false"
       hide_knots="false" /><inkscape:path-effect
       effect="fillet_chamfer"
       id="path-effect18"
       is_visible="true"
       lpeversion="1"
       nodesatellites_param="F,0,0,1,0,0,0,1 @ F,0,0,1,0,4.6572214,0,1 @ F,0,0,1,0,4.3782729,0,1 @ F,0,0,1,0,0,0,1"
       radius="0"
       unit="px"
       method="auto"
       mode="F"
       chamfer_steps="1"
       flexible="false"
       use_knot_distance="true"
       apply_no_radius="true"
       apply_with_radius="true"
       only_selected="false"
       hide_knots="false" /><inkscape:path-effect
       effect="fillet_chamfer"
       id="path-effect17"
       is_visible="true"
       lpeversion="1"
       nodesatellites_param="F,0,0,1,0,0,0,1 @ F,0,0,1,0,6.7359881,0,1 @ F,0,0,1,0,0,0,1 @ F,0,0,1,0,0,0,1"
       radius="0"
       unit="px"
       method="auto"
       mode="F"
       chamfer_steps="1"
       flexible="false"
       use_knot_distance="true"
       apply_no_radius="true"
       apply_with_radius="true"
       only_selected="false"
       hide_knots="false" /></defs><g
     inkscape:label="Layer 1"
     inkscape:groupmode="layer"
     id="layer1"><path
       id="path16"
       style="fill:none;stroke:#000000;stroke-width:3.23292"
       d="m 281.36725,277.86732 a 12.134019,12.134281 0 0 1 -16.70151,3.9406 12.134019,12.134281 0 0 1 -3.94056,-16.70186 12.134019,12.134281 0 0 1 16.70149,-3.94069 12.134019,12.134281 0 0 1 3.94065,16.70184 z" /><path
       style="fill:none;stroke:#000000;stroke-width:3.38153"
       d="m 253.09134,264.74392 -63.06362,-0.11339 v 14.85503 l 65.77155,-0.0795"
       id="path20"
       sodipodi:nodetypes="cccc" /><path
       id="path1"
       style="fill:none;stroke:#000000;stroke-width:3"
       d="M 270.2168 145.51367 C 264.27392 146.31229 259.05106 150.24346 256.00294 155.31848 C 249.50474 164.88038 245.51055 175.88011 242.52814 186.97972 C 239.16924 199.17978 236.27923 211.69623 236.47911 224.42686 C 236.64447 235.98247 240.77706 247.1614 246.70537 256.96546 C 249.48325 261.63525 253.0603 265.74765 256.32842 270.06707 C 257.01991 271.07341 257.81066 272.11398 258.02352 273.33677 C 257.82616 275.7524 256.02969 277.56144 254.63413 279.38999 C 248.24632 287.492 242.6897 296.45068 239.70633 306.3938 C 235.88141 318.5734 236.01748 331.81213 239.27751 344.10178 C 242.26159 357.60893 245.9718 371.12701 252.52467 383.38908 C 255.46473 388.6925 259.1665 393.7916 264.30895 397.14976 C 269.41252 400.08133 276.3762 399.02926 280.47449 394.83442 C 284.74426 391.01464 287.58726 385.94327 290.25409 380.94831 C 295.12355 371.28707 298.0984 360.82356 300.76514 350.38063 C 302.84819 341.74631 304.56046 332.94851 304.68354 324.03973 C 304.34167 310.20699 299.31499 296.7642 291.62408 285.36243 C 289.03655 281.48535 285.64036 278.0914 283.81229 273.74711 C 283.51214 271.93681 284.76786 270.38813 285.87224 269.10642 C 291.69981 262.02361 297.26858 254.51841 300.59742 245.8967 C 305.5612 233.07184 306.22867 218.78243 303.29569 205.40101 C 300.37112 190.77629 296.64693 176.13068 289.85805 162.76775 C 287.08767 157.30921 283.62427 151.98151 278.60588 148.335 C 276.16313 146.61931 273.23792 145.44745 270.2168 145.51367 z " /></g></svg>
