<?xml version="1.0" encoding="UTF-8" standalone="no"?>
<!-- Created with Inkscape (http://www.inkscape.org/) -->

<svg
   width="2048"
   height="2048"
   viewBox="0 0 541.86665 541.86666"
   version="1.1"
   id="svg1"
   xml:space="preserve"
   inkscape:version="1.3.2 (091e20e, 2023-11-25)"
   sodipodi:docname="Turbine niveau 2.svg"
   xmlns:inkscape="http://www.inkscape.org/namespaces/inkscape"
   xmlns:sodipodi="http://sodipodi.sourceforge.net/DTD/sodipodi-0.dtd"
   xmlns="http://www.w3.org/2000/svg"
   xmlns:svg="http://www.w3.org/2000/svg"><sodipodi:namedview
     id="namedview1"
     pagecolor="#505050"
     bordercolor="#eeeeee"
     borderopacity="1"
     inkscape:showpageshadow="0"
     inkscape:pageopacity="0"
     inkscape:pagecheckerboard="0"
     inkscape:deskcolor="#505050"
     inkscape:document-units="mm"
     inkscape:zoom="0.33453154"
     inkscape:cx="1279.4011"
     inkscape:cy="845.95911"
     inkscape:window-width="1312"
     inkscape:window-height="781"
     inkscape:window-x="0"
     inkscape:window-y="25"
     inkscape:window-maximized="0"
     inkscape:current-layer="layer1" /><defs
     id="defs1" /><g
     inkscape:label="Layer 1"
     inkscape:groupmode="layer"
     id="layer1"><path
       style="fill:none;stroke:#000000;stroke-width:4.07285"
       d="M 168.03445,267.26502 H 354.39979"
       id="path8" /><path
       id="path1"
       style="fill:none;stroke:#000000;stroke-width:3"
       d="M 312.20117 146.97852 C 305.00044 147.82717 298.39178 152.18471 294.50977 158.26953 C 287.30895 168.6732 282.33546 180.51053 279.22671 192.74579 C 276.72293 202.22561 274.32942 211.81277 273.69141 221.63086 C 273.52999 228.84818 275.8165 235.97371 279.52123 242.1175 C 285.32077 251.78013 293.81659 259.93057 304.03736 264.77423 C 305.95409 265.66408 307.96835 266.36645 310.05469 266.72656 C 310.38518 266.58013 310.39798 267.1063 310.04764 267.00325 C 306.40162 268.03877 303.00688 269.79084 299.74355 271.68899 C 290.67492 277.12211 283.06341 285.03217 278.17464 294.42019 C 273.5645 303.78587 272.63402 314.84617 275.40625 324.89258 C 278.39686 337.87527 282.08255 350.79488 287.89452 362.8259 C 290.60131 368.41006 293.70958 373.91744 298.09315 378.37186 C 301.02301 381.31459 304.4807 383.90196 308.50977 385.08984 C 313.35901 386.47504 318.73196 385.31566 322.83061 382.45896 C 325.94531 380.32155 328.25871 377.27288 330.51273 374.29311 C 335.1579 367.98045 338.63314 360.88311 341.43635 353.58587 C 344.5003 345.48063 346.65146 337.06757 348.59979 328.63554 C 349.99095 322.54752 351.23762 316.36326 351.23578 310.09226 C 351.24533 305.42383 350.10589 300.80371 348.29615 296.51906 C 345.1917 289.20604 340.01095 282.92915 333.99197 277.81295 C 328.9628 273.5467 323.33218 269.99807 317.33789 267.25195 C 317.01044 266.82156 317.57592 266.34287 317.99805 266.32617 C 320.70092 265.41418 323.24305 264.09089 325.73319 262.71364 C 333.46852 258.30921 340.26398 252.18793 345.23928 244.79124 C 350.55395 236.63974 352.8636 226.51913 351.33911 216.88555 C 350.41201 210.19041 348.77176 203.623 347.14374 197.07151 C 344.09598 185.59342 340.04565 174.30973 334.216 163.93307 C 331.18623 158.75205 327.41994 153.87645 322.52319 150.33281 C 319.50632 148.25404 315.89634 146.91513 312.20117 146.97852 z " /></g></svg>
