<?xml version="1.0" encoding="UTF-8" standalone="no"?>
<!-- Created with Inkscape (http://www.inkscape.org/) -->

<svg
   width="280"
   height="280"
   viewBox="0 0 74.083333 74.083333"
   version="1.1"
   id="svg620"
   inkscape:version="1.2.2 (732a01da63, 2022-12-09)"
   sodipodi:docname="voile1_dessin.svg"
   inkscape:export-filename="voile1.png"
   inkscape:export-xdpi="96"
   inkscape:export-ydpi="96"
   xmlns:inkscape="http://www.inkscape.org/namespaces/inkscape"
   xmlns:sodipodi="http://sodipodi.sourceforge.net/DTD/sodipodi-0.dtd"
   xmlns:xlink="http://www.w3.org/1999/xlink"
   xmlns="http://www.w3.org/2000/svg"
   xmlns:svg="http://www.w3.org/2000/svg">
  <sodipodi:namedview
     id="namedview622"
     pagecolor="#ffffff"
     bordercolor="#666666"
     borderopacity="1.0"
     inkscape:showpageshadow="2"
     inkscape:pageopacity="0.0"
     inkscape:pagecheckerboard="0"
     inkscape:deskcolor="#d1d1d1"
     inkscape:document-units="mm"
     showgrid="false"
     inkscape:zoom="0.84096521"
     inkscape:cx="89.777793"
     inkscape:cy="289.54825"
     inkscape:window-width="1162"
     inkscape:window-height="991"
     inkscape:window-x="748"
     inkscape:window-y="0"
     inkscape:window-maximized="0"
     inkscape:current-layer="layer1"
     showguides="false" />
  <defs
     id="defs617">
    <linearGradient
       inkscape:collect="always"
       id="linearGradient10412">
      <stop
         style="stop-color:#ffffff;stop-opacity:0.25414366;"
         offset="0"
         id="stop10408" />
      <stop
         style="stop-color:#a6a6a6;stop-opacity:0.24033147;"
         offset="1"
         id="stop10410" />
    </linearGradient>
    <radialGradient
       inkscape:collect="always"
       xlink:href="#linearGradient10412"
       id="radialGradient10414"
       cx="21.570011"
       cy="17.879232"
       fx="21.570011"
       fy="17.879232"
       r="28.233325"
       gradientTransform="matrix(1.1155752,0.98540679,-0.83614108,0.94659201,11.688026,-15.042222)"
       gradientUnits="userSpaceOnUse" />
  </defs>
  <g
     inkscape:label="Calque 1"
     inkscape:groupmode="layer"
     id="layer1">
    <path
       style="font-variation-settings:normal;vector-effect:none;fill:#ffffff;fill-opacity:1;stroke:none;stroke-width:0.4;stroke-linecap:square;stroke-linejoin:miter;stroke-miterlimit:4;stroke-dasharray:none;stroke-dashoffset:0;stroke-opacity:1;-inkscape-stroke:none;stop-color:#000000"
       d="M 17.796949,14.937028 C 7.3573287,28.020213 4.6118507,43.680322 18.491131,59.329527 l 46.34077,-0.265507 v 0 C 52.270754,44.931571 54.520453,27.289285 64.60428,14.754921 Z"
       id="path10541" />
    <path
       style="font-variation-settings:normal;opacity:1;vector-effect:none;fill:#d0d0d0;fill-opacity:1;stroke:none;stroke-width:0.4;stroke-linecap:square;stroke-linejoin:miter;stroke-miterlimit:4;stroke-dasharray:none;stroke-dashoffset:0;stroke-opacity:1;-inkscape-stroke:none;stop-color:#000000;stop-opacity:1"
       d="m 41.490464,49.833051 c 9.121229,-3.44827 7.285858,-9.677401 9.899869,-18.353692 1.340813,-4.450357 4.559889,-10.864571 -1.55768,-16.666968 L 64.60428,14.754921 C 54.520463,27.289272 52.270767,44.931585 64.831901,59.06402 v 0 l -46.34077,0.265507 c -2.898499,-3.268124 -5.071954,-6.536733 -6.601843,-9.782559 7.931686,1.89318 22.281529,3.053267 29.601176,0.286083 z"
       id="path10220"
       sodipodi:nodetypes="ssccscccs" />
    <path
       style="font-variation-settings:normal;vector-effect:none;fill:url(#radialGradient10414);fill-opacity:1;stroke:none;stroke-width:0.4;stroke-linecap:square;stroke-linejoin:miter;stroke-miterlimit:4;stroke-dasharray:none;stroke-dashoffset:0;stroke-opacity:1;-inkscape-stroke:none;stop-color:#000000;opacity:1"
       d="M 17.796949,14.937028 C 7.3573285,28.020213 4.6118505,43.680322 18.491131,59.329527 l 46.34077,-0.265507 v 0 C 52.270754,44.931571 54.520453,27.289285 64.60428,14.754921 Z"
       id="path10383" />
    <path
       style="font-variation-settings:normal;vector-effect:none;fill:none;fill-opacity:1;stroke:#000000;stroke-width:0.4;stroke-linecap:square;stroke-linejoin:miter;stroke-miterlimit:4;stroke-dasharray:none;stroke-dashoffset:0;stroke-opacity:1;-inkscape-stroke:none;stop-color:#000000"
       d="M 17.796949,14.937028 C 7.3573287,28.020213 4.6118507,43.680322 18.491131,59.329527 l 46.34077,-0.265507 v 0 C 52.270754,44.931571 54.520453,27.289285 64.60428,14.754921 Z"
       id="path1834" />
    <path
       style="color:#000000;fill:#8d471a;stroke-linecap:round;fill-opacity:1;stroke:#000000;stroke-width:0.4;stroke-dasharray:none"
       d="M 64.599609,13.755859 17.792969,13.9375 a 1,1 0 0 0 -0.996094,1.003906 1,1 0 0 0 1.003906,0.996094 l 46.806641,-0.181641 a 1,1 0 0 0 0.996094,-1.003906 1,1 0 0 0 -1.003907,-0.996094 z"
       id="path9104" />
    <path
       style="font-variation-settings:normal;opacity:1;fill:none;fill-opacity:1;stroke:#000000;stroke-width:0;stroke-linecap:square;stroke-linejoin:miter;stroke-miterlimit:4;stroke-dasharray:none;stroke-dashoffset:0;stroke-opacity:1;stop-color:#000000;stop-opacity:1"
       d="m 18.491131,59.329526 46.34077,-0.265507"
       id="path9469" />
    <path
       style="color:#000000;fill:#6d3714;stroke-linecap:round;-inkscape-stroke:none;font-variation-settings:normal;opacity:1;vector-effect:none;fill-opacity:1;stroke:#000000;stroke-width:0.4;stroke-linejoin:miter;stroke-miterlimit:4;stroke-dasharray:none;stroke-dashoffset:0;stroke-opacity:1;stop-color:#000000;stop-opacity:1"
       d="m 64.826172,58.064453 -46.339844,0.265625 a 1,1 0 0 0 -0.996094,1.005859 1,1 0 0 0 1.00586,0.994141 l 46.341797,-0.265625 a 1,1 0 0 0 0.99414,-1.005859 1,1 0 0 0 -1.005859,-0.994141 z"
       id="path9473" />
  </g>
</svg>
