<?xml version="1.0" encoding="UTF-8" standalone="no"?>
<!-- Created with Inkscape (http://www.inkscape.org/) -->

<svg
   width="2048"
   height="2048"
   viewBox="0 0 541.86665 541.86666"
   version="1.1"
   id="svg1"
   xml:space="preserve"
   inkscape:version="1.3.2 (091e20e, 2023-11-25)"
   sodipodi:docname="Voile niveau 3.svg"
   xmlns:inkscape="http://www.inkscape.org/namespaces/inkscape"
   xmlns:sodipodi="http://sodipodi.sourceforge.net/DTD/sodipodi-0.dtd"
   xmlns="http://www.w3.org/2000/svg"
   xmlns:svg="http://www.w3.org/2000/svg"><sodipodi:namedview
     id="namedview1"
     pagecolor="#505050"
     bordercolor="#eeeeee"
     borderopacity="1"
     inkscape:showpageshadow="0"
     inkscape:pageopacity="0"
     inkscape:pagecheckerboard="0"
     inkscape:deskcolor="#505050"
     inkscape:document-units="mm"
     inkscape:zoom="0.16531664"
     inkscape:cx="1194.6771"
     inkscape:cy="671.43877"
     inkscape:window-width="1312"
     inkscape:window-height="781"
     inkscape:window-x="46"
     inkscape:window-y="25"
     inkscape:window-maximized="0"
     inkscape:current-layer="layer1" /><defs
     id="defs1" /><g
     inkscape:label="Layer 1"
     inkscape:groupmode="layer"
     id="layer1"><path
       style="fill:none;stroke:#000000;stroke-width:3"
       d="M 229.95828,217.10347 255.6679,433.49277 462.77318,353.5073 299.23142,182.10982 Z"
       id="path1" /><path
       style="fill:none;stroke:#000000;stroke-width:3.07831"
       d="m 238.53775,281.25742 c 0,0 86.57173,24.40317 105.64686,-52.45037"
       id="path2"
       sodipodi:nodetypes="cc" /><path
       style="fill:none;stroke:#000000;stroke-width:3"
       d="m 245.31391,354.38154 c 0,0 87.53647,34.94399 151.071,-69.888"
       id="path3" /><path
       style="fill:none;stroke:#000000;stroke-width:3"
       d="m 207.54615,142.59974 1.05891,-32.12024 c 0,0 15.53067,-7.41236 30.70836,8.47127 15.1777,15.88364 33.17915,1.05891 33.17915,1.05891 0,0 -0.35298,7.76533 -8.1183,13.41285 -7.76533,5.64751 -16.58957,1.05891 -22.23709,9.88315 -5.64751,8.82424 -13.76581,-19.06036 -34.59103,-0.70594 z"
       id="path4" /></g></svg>
